<!--?xml version="1.0" encoding="utf-8"?-->
<!-- Generator: Adobe Illustrator 18.1.1, SVG Export Plug-In . SVG Version: 6.00 Build 0)  -->

<svg version="1.1" id="_x32_" xmlns="http://www.w3.org/2000/svg" xmlns:xlink="http://www.w3.org/1999/xlink" x="0px" y="0px" viewBox="0 0 512 512" style="width: 32px; height: 32px; opacity: 1;" xml:space="preserve">
<style type="text/css">
	.st0{fill:#4B4B4B;}
</style>
<g>
	<path class="st0" d="M439.56,144.813c-4.522-39.836-45.271-56.241-45.271-56.241s-11.198,32.337-6.79,63.267
		c5.351,37.514-41.853,77.837-141.994,77.837c0,0-192.823,0-231.951,0c-39.12,0,5.032,133.035,150.909,138.851
		c11.236,0.449,21.924,0.137,32.155-0.762c18.552,18.727,46.428,40.019,86.751,55.434c15.278,5.086,36.433-75.393-47.791-131.253
		l2.634-2.269c28.083,11.51,47.631,26.652,60.869,42.432c51.551-34.324,78.332-82.633,90.687-98.262
		c20.371-25.775,40.17-29.148,70.172-32.802C498.412,196.357,512,168.243,512,168.243S471.25,142.468,439.56,144.813z" style="fill: rgb(69, 104, 181);"></path>
</g>
</svg>
